# xmcd
#
# Track frame offsets:
#        150
#        14972
#        28265
#        41235
#
# Disc length: 812 seconds
#
# Revision: 1
# Processed by: cddbd v1.5.1PL0 Copyright (c) Steve Scherf et al.
# Submitted via: ExactAudioCopy v0.95a5
#
DISCID=37032a04
DTITLE=Velocity Girl - I Can't Stop Smiling
DYEAR=1994
DGENRE=
TTITLE0=I Can't Stop Smiling
TTITLE1=Marzipan
TTITLE2=Diamond Jubilee
TTITLE3=Labrador (Remix)
EXTD=YEAR: 2000
EXTT0=
EXTT1=
EXTT2=
EXTT3=
PLAYORDER=
